<svg xmlns="http://www.w3.org/2000/svg" width="124.516" height="52.023" viewBox="0 0 124.516 52.023">
  <g id="Group_2396" data-name="Group 2396" transform="translate(-616.256 -2444.752)">
    <g id="Group_2394" data-name="Group 2394">
      <g id="Group_2388" data-name="Group 2388">
        <path id="Path_9718" data-name="Path 9718" d="M738.146,2482.637H721.855a1.6,1.6,0,1,1,0-3.2h13.619l-4.26-7.95a1.6,1.6,0,0,1,0-1.511l4.261-7.966H712.238v4.561a1.6,1.6,0,0,1-3.2,0v-6.161a1.6,1.6,0,0,1,1.6-1.6h27.508a1.6,1.6,0,0,1,1.411,2.356l-5.118,9.565,5.118,9.551a1.6,1.6,0,0,1-1.411,2.356Z" fill="#ff7ba4" stroke="#ff7ba4" stroke-miterlimit="10" stroke-width="2"/>
      </g>
      <g id="Group_2389" data-name="Group 2389">
        <path id="Path_9719" data-name="Path 9719" d="M635.156,2482.637H618.882a1.6,1.6,0,0,1-1.412-2.356l5.118-9.551-5.118-9.565a1.6,1.6,0,0,1,1.412-2.356h27.491a1.6,1.6,0,0,1,1.6,1.6v6.161a1.6,1.6,0,0,1-3.2,0v-4.561H621.552l4.262,7.966a1.6,1.6,0,0,1,0,1.511l-4.26,7.95h13.6a1.6,1.6,0,1,1,0,3.2Z" fill="#ff7ba4" stroke="#ff7ba4" stroke-miterlimit="10" stroke-width="2"/>
      </g>
      <g id="Group_2390" data-name="Group 2390">
        <path id="Path_9720" data-name="Path 9720" d="M657.069,2488.785H635.162a1.6,1.6,0,0,1-1.6-1.6v-20.622a1.6,1.6,0,0,1,1.6-1.6h14.064a1.6,1.6,0,0,1,0,3.2H636.762v17.421h20.307a1.6,1.6,0,1,1,0,3.2Z" fill="#ff7ba4" stroke="#ff7ba4" stroke-miterlimit="10" stroke-width="2"/>
      </g>
      <g id="Group_2391" data-name="Group 2391">
        <path id="Path_9721" data-name="Path 9721" d="M721.858,2488.785H700.991a1.6,1.6,0,1,1,0-3.2h19.267v-17.421H707.267a1.6,1.6,0,0,1,0-3.2h14.591a1.6,1.6,0,0,1,1.6,1.6v20.622A1.6,1.6,0,0,1,721.858,2488.785Z" fill="#ff7ba4" stroke="#ff7ba4" stroke-miterlimit="10" stroke-width="2"/>
      </g>
      <g id="Group_2392" data-name="Group 2392">
        <path id="Path_9722" data-name="Path 9722" d="M721.858,2468.164H710.642a1.6,1.6,0,0,1-1.6-1.6v-6.151a1.6,1.6,0,0,1,2.369-1.4l11.216,6.151a1.6,1.6,0,0,1-.769,3Zm-9.616-3.2h3.37l-3.37-1.848Z" fill="#ff7ba4" stroke="#ff7ba4" stroke-miterlimit="10" stroke-width="2"/>
      </g>
      <g id="Group_2393" data-name="Group 2393">
        <path id="Path_9723" data-name="Path 9723" d="M646.377,2468.164H635.162a1.6,1.6,0,0,1-.769-3l11.215-6.151a1.6,1.6,0,0,1,2.37,1.4v6.151A1.6,1.6,0,0,1,646.377,2468.164Zm-4.969-3.2h3.369v-1.848Z" fill="#ff7ba4" stroke="#ff7ba4" stroke-miterlimit="10" stroke-width="2"/>
      </g>
    </g>
    <g id="Group_2395" data-name="Group 2395">
      <path id="Path_9724" data-name="Path 9724" d="M693.738,2495.752a1.6,1.6,0,0,1-.648-.137l-14.577-6.456-14.576,6.456a1.6,1.6,0,0,1-2.24-1.627l1.636-15.858-10.645-11.87a1.6,1.6,0,0,1,.855-2.632l15.587-3.345,8-13.791a1.664,1.664,0,0,1,2.768,0l8,13.791,15.587,3.345a1.6,1.6,0,0,1,.855,2.632L693.7,2478.13l1.636,15.858a1.6,1.6,0,0,1-1.593,1.764Zm-15.225-9.943a1.614,1.614,0,0,1,.649.136l12.7,5.626-1.425-13.818a1.6,1.6,0,0,1,.4-1.232l9.275-10.343-13.583-2.915a1.609,1.609,0,0,1-1.049-.761l-6.969-12.018-6.97,12.018a1.6,1.6,0,0,1-1.049.761l-13.582,2.915,9.276,10.343a1.6,1.6,0,0,1,.4,1.232l-1.426,13.818,12.7-5.626A1.6,1.6,0,0,1,678.513,2485.809Z" fill="#ff7ba4" stroke="#ff7ba4" stroke-miterlimit="10" stroke-width="2"/>
    </g>
  </g>
</svg>
