<svg xmlns="http://www.w3.org/2000/svg" width="58.13" height="40" viewBox="0 0 58.13 40">
  <g id="Group_22" data-name="Group 22" transform="translate(-5802.481 -5787.486)">
    <g id="Group_18" data-name="Group 18">
      <path id="Path_36" data-name="Path 36" d="M5855.225,5827.486h-47.357a5.393,5.393,0,0,1-5.387-5.387v-29.226a5.393,5.393,0,0,1,5.387-5.387h47.357a5.393,5.393,0,0,1,5.386,5.387V5822.1A5.393,5.393,0,0,1,5855.225,5827.486Zm-47.357-37.666a3.056,3.056,0,0,0-3.053,3.053V5822.1a3.056,3.056,0,0,0,3.053,3.053h47.357a3.056,3.056,0,0,0,3.052-3.053v-29.226a3.055,3.055,0,0,0-3.052-3.053Z" fill="#151229"/>
    </g>
    <g id="Group_19" data-name="Group 19">
      <path id="Path_37" data-name="Path 37" d="M5831.547,5815.549a3.133,3.133,0,0,1-2.107-.816l-25.821-23.4a1.167,1.167,0,1,1,1.566-1.73l25.822,23.4a.8.8,0,0,0,1.077,0l25.823-23.4a1.167,1.167,0,1,1,1.567,1.73l-25.822,23.4A3.132,3.132,0,0,1,5831.547,5815.549Z" fill="#151229"/>
    </g>
    <g id="Group_20" data-name="Group 20">
      <path id="Path_38" data-name="Path 38" d="M5804.962,5826.321a1.167,1.167,0,0,1-.846-1.971L5821.582,5806a1.167,1.167,0,1,1,1.691,1.609l-17.465,18.351A1.163,1.163,0,0,1,5804.962,5826.321Z" fill="#151229"/>
    </g>
    <g id="Group_21" data-name="Group 21">
      <path id="Path_39" data-name="Path 39" d="M5858.13,5826.321a1.16,1.16,0,0,1-.845-.362l-17.466-18.351a1.167,1.167,0,0,1,1.691-1.609l17.466,18.351a1.166,1.166,0,0,1-.846,1.971Z" fill="#151229"/>
    </g>
  </g>
</svg>
