<svg xmlns="http://www.w3.org/2000/svg" width="34.867" height="50.625" viewBox="0 0 34.867 50.625">
  <g id="Group_25" data-name="Group 25" transform="translate(-5071.086 -5782.173)">
    <g id="Group_23" data-name="Group 23">
      <path id="Path_40" data-name="Path 40" d="M5088.52,5832.486a1.038,1.038,0,0,1-.848-.441c-.664-.949-16.273-23.333-16.273-32.438a17.121,17.121,0,0,1,34.242,0c0,9.1-15.608,31.489-16.273,32.438A1.038,1.038,0,0,1,5088.52,5832.486Zm0-47.93a15.068,15.068,0,0,0-15.051,15.051c0,7.308,11.757,25.156,15.051,30.013,3.295-4.857,15.051-22.705,15.051-30.013A15.068,15.068,0,0,0,5088.52,5784.556Z" fill="#151229" stroke="#151229" stroke-miterlimit="10" stroke-width="0.625"/>
    </g>
    <g id="Group_24" data-name="Group 24">
      <path id="Path_41" data-name="Path 41" d="M5088.52,5811.038a11.431,11.431,0,1,1,11.431-11.431A11.444,11.444,0,0,1,5088.52,5811.038Zm0-20.792a9.361,9.361,0,1,0,9.361,9.361A9.371,9.371,0,0,0,5088.52,5790.246Z" fill="#151229" stroke="#151229" stroke-miterlimit="10" stroke-width="0.625"/>
    </g>
  </g>
</svg>
