<svg xmlns="http://www.w3.org/2000/svg" width="72.323" height="50" viewBox="0 0 72.323 50">
  <g id="Group_33" data-name="Group 33" transform="translate(-4815.823 -5022.98)">
    <g id="Group_29" data-name="Group 29">
      <path id="Path_42" data-name="Path 42" d="M4886.77,5072.98H4817.2a1.376,1.376,0,0,1-1.376-1.376v-47.247a1.375,1.375,0,0,1,1.376-1.376h69.571a1.376,1.376,0,0,1,1.376,1.376V5071.6A1.376,1.376,0,0,1,4886.77,5072.98Zm-68.195-2.752h66.819v-44.5h-66.819Z" fill="#ba20ba"/>
    </g>
    <g id="Group_30" data-name="Group 30">
      <path id="Path_43" data-name="Path 43" d="M4851.984,5058.961a1.375,1.375,0,0,1-.951-.381l-34.785-33.229a1.376,1.376,0,0,1,1.9-1.989l33.834,32.32,33.835-32.32a1.376,1.376,0,0,1,1.9,1.989l-34.785,33.229A1.374,1.374,0,0,1,4851.984,5058.961Z" fill="#ba20ba"/>
    </g>
    <g id="Group_31" data-name="Group 31">
      <path id="Path_44" data-name="Path 44" d="M4817.2,5072.98a1.376,1.376,0,0,1-.951-2.371l24.73-23.623a1.376,1.376,0,1,1,1.9,1.989l-24.73,23.623A1.371,1.371,0,0,1,4817.2,5072.98Z" fill="#ba20ba"/>
    </g>
    <g id="Group_32" data-name="Group 32">
      <path id="Path_45" data-name="Path 45" d="M4886.77,5072.98a1.372,1.372,0,0,1-.951-.382l-24.73-23.623a1.376,1.376,0,1,1,1.9-1.989l24.73,23.623a1.376,1.376,0,0,1-.95,2.371Z" fill="#ba20ba"/>
    </g>
  </g>
</svg>
