<svg xmlns="http://www.w3.org/2000/svg" width="101.972" height="121.13" viewBox="0 0 101.972 121.13">
  <g id="Group_4576" data-name="Group 4576" transform="translate(-1473.32 -1052.802)">
    <g id="Group_4567" data-name="Group 4567">
      <g id="Group_4565" data-name="Group 4565">
        <g id="Group_4563" data-name="Group 4563">
          <path id="Path_18812" data-name="Path 18812" d="M1524.306,1173.432a2.034,2.034,0,0,1-.8-3.905c49.909-21.219,47.875-86.566,46.9-99.985-33.284,9.3-47.681-12.763-47.824-12.993a2.033,2.033,0,0,1,3.435-2.174h0c.542.848,13.664,20.674,45.582,10.57a2.032,2.032,0,0,1,2.632,1.7c.1.815,9.09,81.871-49.133,106.627A2.027,2.027,0,0,1,1524.306,1173.432Z" fill="#ff7ba4" stroke="#ff7ba4" stroke-miterlimit="10" stroke-width="1"/>
        </g>
        <g id="Group_4564" data-name="Group 4564">
          <path id="Path_18813" data-name="Path 18813" d="M1524.306,1173.432a2.022,2.022,0,0,1-.8-.163c-58.224-24.756-49.231-105.812-49.133-106.627a2.039,2.039,0,0,1,.917-1.468,2.017,2.017,0,0,1,1.715-.229c32.057,10.151,45.447-10.359,45.578-10.566a2.033,2.033,0,0,1,3.439,2.17c-.145.23-14.523,22.29-47.824,12.994-.964,13.421-2.968,78.781,46.9,99.984a2.034,2.034,0,0,1-.8,3.905Z" fill="#ff7ba4" stroke="#ff7ba4" stroke-miterlimit="10" stroke-width="1"/>
        </g>
      </g>
      <g id="Group_4566" data-name="Group 4566">
        <path id="Path_18814" data-name="Path 18814" d="M1524.306,1159.528a2.018,2.018,0,0,1-.6-.092c-25.074-7.8-32.648-38.709-32.959-40.021a2.033,2.033,0,0,1,3.956-.936c.072.3,7.371,29.972,30.21,37.074a2.033,2.033,0,0,1-.6,3.975Z" fill="#ff7ba4" stroke="#ff7ba4" stroke-miterlimit="10" stroke-width="1"/>
      </g>
    </g>
    <g id="Group_4575" data-name="Group 4575">
      <g id="Group_4573" data-name="Group 4573">
        <g id="Group_4570" data-name="Group 4570">
          <g id="Group_4568" data-name="Group 4568">
            <path id="Path_18815" data-name="Path 18815" d="M1521.737,1111.706a5.148,5.148,0,1,1,0-10.3h5.237a5.156,5.156,0,0,1,5.151,5.148,1.55,1.55,0,1,1-3.1,0,2.051,2.051,0,0,0-2.051-2.048h-5.237a2.049,2.049,0,1,0,0,4.1,1.549,1.549,0,0,1,0,3.1Z" fill="#ff7ba4" stroke="#ff7ba4" stroke-miterlimit="10" stroke-width="1"/>
          </g>
          <g id="Group_4569" data-name="Group 4569">
            <path id="Path_18816" data-name="Path 18816" d="M1526.974,1118.9h-5.237a5.154,5.154,0,0,1-5.148-5.149,1.549,1.549,0,1,1,3.1,0,2.052,2.052,0,0,0,2.049,2.049h5.237a2.049,2.049,0,1,0,0-4.1h-5.237a1.549,1.549,0,1,1,0-3.1h5.237a5.148,5.148,0,1,1,0,10.3Z" fill="#ff7ba4" stroke="#ff7ba4" stroke-miterlimit="10" stroke-width="1"/>
          </g>
        </g>
        <g id="Group_4571" data-name="Group 4571">
          <path id="Path_18817" data-name="Path 18817" d="M1524.355,1104.51a1.55,1.55,0,0,1-1.55-1.55V1099.6a1.55,1.55,0,1,1,3.1,0v3.357A1.549,1.549,0,0,1,1524.355,1104.51Z" fill="#ff7ba4" stroke="#ff7ba4" stroke-miterlimit="10" stroke-width="1"/>
        </g>
        <g id="Group_4572" data-name="Group 4572">
          <path id="Path_18818" data-name="Path 18818" d="M1524.355,1122.26a1.55,1.55,0,0,1-1.55-1.55v-3.356a1.55,1.55,0,1,1,3.1,0v3.356A1.549,1.549,0,0,1,1524.355,1122.26Z" fill="#ff7ba4" stroke="#ff7ba4" stroke-miterlimit="10" stroke-width="1"/>
        </g>
      </g>
      <g id="Group_4574" data-name="Group 4574">
        <path id="Path_18819" data-name="Path 18819" d="M1524.356,1133.933a23.776,23.776,0,1,1,23.776-23.776A23.8,23.8,0,0,1,1524.356,1133.933Zm0-44.453a20.677,20.677,0,1,0,20.676,20.677A20.7,20.7,0,0,0,1524.356,1089.48Z" fill="#ff7ba4" stroke="#ff7ba4" stroke-miterlimit="10" stroke-width="1"/>
      </g>
    </g>
  </g>
</svg>
