<svg xmlns="http://www.w3.org/2000/svg" width="52.218" height="50" viewBox="0 0 52.218 50">
  <g id="Group_124" data-name="Group 124" transform="translate(-2509.211 -5882.444)">
    <g id="Group_122" data-name="Group 122">
      <g id="Group_114" data-name="Group 114">
        <g id="Group_111" data-name="Group 111">
          <path id="Path_291" data-name="Path 291" d="M2536.833,5926.329h-3.027a2.962,2.962,0,0,1-2.958-2.959.907.907,0,1,1,1.814,0,1.147,1.147,0,0,0,1.144,1.145h3.027a1.146,1.146,0,0,0,1.144-1.145v-1.209a1.145,1.145,0,0,0-1.144-1.145h-3.027a2.962,2.962,0,0,1-2.958-2.958v-1.21a2.962,2.962,0,0,1,2.958-2.959h3.027a2.962,2.962,0,0,1,2.958,2.959.907.907,0,0,1-1.814,0,1.146,1.146,0,0,0-1.144-1.145h-3.027a1.146,1.146,0,0,0-1.144,1.145v1.21a1.146,1.146,0,0,0,1.144,1.144h3.027a2.962,2.962,0,0,1,2.958,2.959v1.209A2.962,2.962,0,0,1,2536.833,5926.329Z" fill="#ff8b1e"/>
        </g>
        <g id="Group_112" data-name="Group 112">
          <path id="Path_292" data-name="Path 292" d="M2535.319,5915.7a.906.906,0,0,1-.907-.906v-2.09a.907.907,0,1,1,1.814,0v2.09A.906.906,0,0,1,2535.319,5915.7Z" fill="#ff8b1e"/>
        </g>
        <g id="Group_113" data-name="Group 113">
          <path id="Path_293" data-name="Path 293" d="M2535.319,5928.418a.906.906,0,0,1-.907-.906v-2.09a.907.907,0,0,1,1.814,0v2.09A.905.905,0,0,1,2535.319,5928.418Z" fill="#ff8b1e"/>
        </g>
      </g>
      <g id="Group_115" data-name="Group 115">
        <path id="Path_294" data-name="Path 294" d="M2560.521,5932.443h-50.4a.906.906,0,0,1-.907-.907v-22.854a.906.906,0,0,1,.907-.907h50.4a.907.907,0,0,1,.908.907v22.854A.907.907,0,0,1,2560.521,5932.443Zm-49.5-1.814h48.59v-21.04h-48.59Z" fill="#ff8b1e"/>
      </g>
      <g id="Group_116" data-name="Group 116">
        <path id="Path_295" data-name="Path 295" d="M2542.257,5932.444a.9.9,0,0,1-.55-.187.9.9,0,0,1-.169-1.271,19.525,19.525,0,0,0,0-21.754.907.907,0,1,1,1.44-1.1,21.317,21.317,0,0,1,0,23.959A.9.9,0,0,1,2542.257,5932.444Z" fill="#ff8b1e"/>
      </g>
      <g id="Group_117" data-name="Group 117">
        <path id="Path_296" data-name="Path 296" d="M2528.381,5932.443a.906.906,0,0,1-.721-.355,21.325,21.325,0,0,1,0-23.958.907.907,0,0,1,1.44,1.1,19.524,19.524,0,0,0,0,21.753.908.908,0,0,1-.72,1.458Z" fill="#ff8b1e"/>
      </g>
      <g id="Group_118" data-name="Group 118">
        <path id="Path_297" data-name="Path 297" d="M2510.118,5918.389a.907.907,0,1,1,0-1.814,7.9,7.9,0,0,0,7.892-7.893.907.907,0,1,1,1.814,0A9.718,9.718,0,0,1,2510.118,5918.389Z" fill="#ff8b1e"/>
      </g>
      <g id="Group_119" data-name="Group 119">
        <path id="Path_298" data-name="Path 298" d="M2560.521,5918.389a9.718,9.718,0,0,1-9.706-9.707.907.907,0,1,1,1.814,0,7.9,7.9,0,0,0,7.892,7.893.907.907,0,1,1,0,1.814Z" fill="#ff8b1e"/>
      </g>
      <g id="Group_120" data-name="Group 120">
        <path id="Path_299" data-name="Path 299" d="M2518.917,5932.444a.907.907,0,0,1-.907-.907,7.9,7.9,0,0,0-7.892-7.892.907.907,0,1,1,0-1.814,9.717,9.717,0,0,1,9.706,9.706A.906.906,0,0,1,2518.917,5932.444Z" fill="#ff8b1e"/>
      </g>
      <g id="Group_121" data-name="Group 121">
        <path id="Path_300" data-name="Path 300" d="M2551.722,5932.444a.906.906,0,0,1-.907-.907,9.717,9.717,0,0,1,9.706-9.706.907.907,0,1,1,0,1.814,7.9,7.9,0,0,0-7.892,7.892A.907.907,0,0,1,2551.722,5932.444Z" fill="#ff8b1e"/>
      </g>
    </g>
    <g id="Group_123" data-name="Group 123">
      <path id="Path_301" data-name="Path 301" d="M2535.32,5882.444h0a.909.909,0,0,1,.689.317l8.238,9.619a.906.906,0,0,1-.689,1.5H2540.8v8.469a.907.907,0,0,1-1.814,0v-9.375a.907.907,0,0,1,.906-.908h1.7l-6.268-7.317-6.268,7.317h1.7a.908.908,0,0,1,.907.908v9.375a.907.907,0,0,1-1.814,0v-8.469h-2.762a.906.906,0,0,1-.689-1.5l8.239-9.619A.908.908,0,0,1,2535.32,5882.444Z" fill="#ff8b1e"/>
    </g>
  </g>
</svg>
