<svg xmlns="http://www.w3.org/2000/svg" width="50" height="50" viewBox="0 0 50 50">
  <g id="Group_4466" data-name="Group 4466" transform="translate(-1607.275 -5033.595)">
    <path id="Path_18689" data-name="Path 18689" d="M1657.275,5058.6a25,25,0,1,0-28.906,24.7v-17.47h-6.348V5058.6h6.348v-5.507c0-6.266,3.732-9.727,9.443-9.727a38.443,38.443,0,0,1,5.6.488V5050h-3.152c-3.106,0-4.074,1.927-4.074,3.9v4.689h6.933l-1.108,7.227h-5.825v17.47A25.006,25.006,0,0,0,1657.275,5058.6Z" fill="#1877ea"/>
    <path id="Path_18690" data-name="Path 18690" d="M1642.007,5065.822l1.108-7.227h-6.933v-4.689c0-1.977.968-3.9,4.074-3.9h3.152v-6.153a38.443,38.443,0,0,0-5.6-.488c-5.711,0-9.443,3.461-9.443,9.727v5.507h-6.348v7.227h6.348v17.47a25.316,25.316,0,0,0,7.813,0v-17.47Z" fill="#fff"/>
  </g>
</svg>
