<svg xmlns="http://www.w3.org/2000/svg" xmlns:xlink="http://www.w3.org/1999/xlink" width="178.155" height="95.847" viewBox="0 0 178.155 95.847">
  <defs>
    <linearGradient id="linear-gradient" x1="0.5" y1="1.358" x2="0.5" y2="0.03" gradientUnits="objectBoundingBox">
      <stop offset="0.157" stop-color="#925500"/>
      <stop offset="0.17" stop-color="#965a03"/>
      <stop offset="0.379" stop-color="#d6b43a"/>
      <stop offset="0.474" stop-color="#f0d850"/>
      <stop offset="0.498" stop-color="#e9cd45"/>
      <stop offset="0.625" stop-color="#c79b13"/>
      <stop offset="0.688" stop-color="#ba8800"/>
      <stop offset="0.749" stop-color="#bf8f07"/>
      <stop offset="0.841" stop-color="#cda51d"/>
      <stop offset="0.954" stop-color="#e4c73f"/>
      <stop offset="1" stop-color="#f0d850"/>
    </linearGradient>
    <linearGradient id="linear-gradient-2" x1="2.345" y1="-0.134" x2="3.295" y2="-0.134" gradientUnits="objectBoundingBox">
      <stop offset="0.098" stop-color="#0096b4"/>
      <stop offset="0.999" stop-color="#2c2e81"/>
    </linearGradient>
    <linearGradient id="linear-gradient-3" x1="2.944" y1="-0.586" x2="3.948" y2="-0.586" xlink:href="#linear-gradient-2"/>
    <linearGradient id="linear-gradient-4" x1="162.419" y1="20.713" x2="163.695" y2="20.713" gradientUnits="objectBoundingBox">
      <stop offset="0" stop-color="#0096b4"/>
      <stop offset="1" stop-color="#2c2e81"/>
    </linearGradient>
    <linearGradient id="linear-gradient-5" x1="0.548" y1="1.752" x2="0.471" y2="-0.257" gradientUnits="objectBoundingBox">
      <stop offset="0.038" stop-color="#925500"/>
      <stop offset="0.697" stop-color="#f0d850"/>
    </linearGradient>
    <linearGradient id="linear-gradient-6" x1="0.537" y1="1.654" x2="0.473" y2="-0.351" gradientUnits="objectBoundingBox">
      <stop offset="0.125" stop-color="#925500"/>
      <stop offset="0.838" stop-color="#f0d850"/>
    </linearGradient>
    <linearGradient id="linear-gradient-7" x1="0.001" y1="0.556" x2="1.132" y2="0.414" gradientUnits="objectBoundingBox">
      <stop offset="0.265" stop-color="#925500"/>
      <stop offset="0.838" stop-color="#f0d850"/>
    </linearGradient>
    <linearGradient id="linear-gradient-8" x1="0.52" y1="1.595" x2="0.48" y2="-0.571" gradientUnits="objectBoundingBox">
      <stop offset="0.333" stop-color="#925500"/>
      <stop offset="0.965" stop-color="#f0d850"/>
    </linearGradient>
    <linearGradient id="linear-gradient-9" x1="1.035" y1="0.811" x2="-0.153" y2="0.12" gradientUnits="objectBoundingBox">
      <stop offset="0.302" stop-color="#925500"/>
      <stop offset="0.838" stop-color="#f0d850"/>
    </linearGradient>
    <linearGradient id="linear-gradient-10" x1="-0.588" y1="0.639" x2="2.424" y2="0.253" gradientUnits="objectBoundingBox">
      <stop offset="0.267" stop-color="#925500"/>
      <stop offset="0.838" stop-color="#f0d850"/>
    </linearGradient>
    <linearGradient id="linear-gradient-11" x1="0.566" y1="2.063" x2="0.433" y2="-1.092" gradientUnits="objectBoundingBox">
      <stop offset="0.346" stop-color="#925500"/>
      <stop offset="0.838" stop-color="#f0d850"/>
    </linearGradient>
    <linearGradient id="linear-gradient-12" x1="0.445" y1="-0.338" x2="0.547" y2="1.219" gradientUnits="objectBoundingBox">
      <stop offset="0.332" stop-color="#925500"/>
      <stop offset="0.89" stop-color="#925500"/>
    </linearGradient>
    <linearGradient id="linear-gradient-13" x1="0.527" y1="1.814" x2="0.462" y2="-1.354" gradientUnits="objectBoundingBox">
      <stop offset="0.289" stop-color="#925500"/>
      <stop offset="1" stop-color="#f0d850"/>
    </linearGradient>
    <linearGradient id="linear-gradient-14" x1="3.248" y1="0.66" x2="-1.472" y2="0.385" gradientUnits="objectBoundingBox">
      <stop offset="0.491" stop-color="#925500"/>
      <stop offset="0.838" stop-color="#f0d850"/>
    </linearGradient>
    <linearGradient id="linear-gradient-15" x1="0.515" y1="2.065" x2="0.485" y2="-1.121" gradientUnits="objectBoundingBox">
      <stop offset="0.33" stop-color="#925500"/>
      <stop offset="0.838" stop-color="#f0d850"/>
    </linearGradient>
    <linearGradient id="linear-gradient-16" x1="4.159" y1="0.668" x2="-2.327" y2="0.37" gradientUnits="objectBoundingBox">
      <stop offset="0.459" stop-color="#925500"/>
      <stop offset="0.838" stop-color="#f0d850"/>
    </linearGradient>
    <linearGradient id="linear-gradient-17" x1="2.704" y1="0.613" x2="-0.516" y2="0.448" gradientUnits="objectBoundingBox">
      <stop offset="0.541" stop-color="#925500"/>
      <stop offset="0.838" stop-color="#f0d850"/>
    </linearGradient>
    <linearGradient id="linear-gradient-18" x1="0.54" y1="1.687" x2="0.468" y2="-0.439" gradientUnits="objectBoundingBox">
      <stop offset="0.41" stop-color="#925500"/>
      <stop offset="0.838" stop-color="#f0d850"/>
    </linearGradient>
    <linearGradient id="linear-gradient-19" x1="0.426" y1="-0.405" x2="0.549" y2="1.198" xlink:href="#linear-gradient-12"/>
    <linearGradient id="linear-gradient-20" x1="0.456" y1="-1.668" x2="0.516" y2="1.928" xlink:href="#linear-gradient-18"/>
    <linearGradient id="linear-gradient-21" x1="-1.878" y1="0.714" x2="-0.564" y2="0.714" gradientUnits="objectBoundingBox">
      <stop offset="0" stop-color="#0096b4"/>
      <stop offset="0.999" stop-color="#2c2e81"/>
    </linearGradient>
    <linearGradient id="linear-gradient-22" x1="-1.204" y1="0.605" x2="-0.29" y2="1.226" xlink:href="#linear-gradient-21"/>
    <linearGradient id="linear-gradient-23" x1="-0.581" y1="1.213" x2="-1.914" y2="1.213" gradientUnits="objectBoundingBox">
      <stop offset="0.14" stop-color="#0096b4"/>
      <stop offset="0.999" stop-color="#2c2e81"/>
    </linearGradient>
    <linearGradient id="linear-gradient-24" x1="0.779" y1="-0.48" x2="-0.53" y2="1.207" gradientUnits="objectBoundingBox">
      <stop offset="0.196" stop-color="#0096b4"/>
      <stop offset="0.999" stop-color="#2c2e81"/>
    </linearGradient>
    <linearGradient id="linear-gradient-25" x1="-1.924" y1="0.721" x2="-0.344" y2="0.721" xlink:href="#linear-gradient-21"/>
    <linearGradient id="linear-gradient-26" x1="-0.768" y1="0.043" x2="-2.021" y2="1.557" xlink:href="#linear-gradient-21"/>
  </defs>
  <g id="Group_4459" data-name="Group 4459" transform="translate(-159.815 -20.57)">
    <path id="Path_18624" data-name="Path 18624" d="M178.759,107.5" fill="#fff"/>
    <path id="Path_18625" data-name="Path 18625" d="M249.926,61.195c-4.562-6.012-8-.861-9.793,9.034-6.317,30.451-17.227,47.736-34.8,23.6q.4.3.792.564c9.886,6.752,15.455-.445,18.616-13.757,3.751-15.786,4.11-40.173,4.256-60.068Z" fill="url(#linear-gradient)"/>
    <path id="Path_18626" data-name="Path 18626" d="M204.39,94.014q-.254-.179-.488-.32c-5.039-3.024-3.726,7.319-7.21,15.848-6.253,15.308-28.213,6.717-36.877-42.708q2.295,4.065,4.587,8.128c3.586,6.339,7.162,12.722,11.194,18.79a46.527,46.527,0,0,0,4.423,5.891c1.185,1.287,3.251,2.358,4.964,1.456,1.436-.756,1.974-2.536,2.313-4.007a52.6,52.6,0,0,0,.891-7.264c.116-1.29.218-2.59.338-3.888a6.262,6.262,0,0,1,2.323-4.39C195.711,77.769,199.931,86.793,204.39,94.014Z" fill="url(#linear-gradient-2)"/>
    <path id="Path_18627" data-name="Path 18627" d="M223.931,78.833c-.027.115-.054.229-.082.343-2.731,11.261-7.226,18.026-14.668,15.436a11.853,11.853,0,0,1-6.233-5.205c-4.357-7.348-8.585-14.767-13.529-8.2q-.281.372-.564.8c.031-.276.063-.553.1-.829a42.018,42.018,0,0,1,.914-5.118c.574-2.29,1.432-4.7,3.38-6.189a6.763,6.763,0,0,1,5.969-1.175c2.655.808,4.582,3.18,6.116,5.364,1.6,2.273,2.939,4.757,4.582,6.968,1.44,1.947,3.377,4.323,6.047,4.24,3.344-.1,5.971-3.59,7.748-6.115C223.784,79.044,223.859,78.938,223.931,78.833Z" fill="url(#linear-gradient-3)"/>
    <path id="Path_18628" data-name="Path 18628" d="M215.362,45.722c7.239,1.614,9.89,7.018,9.712,14.758l1.988-39.844Z" fill="url(#linear-gradient-4)"/>
    <path id="Path_18629" data-name="Path 18629" d="M337.964,60.7V60.68a16.222,16.222,0,0,0-32.433-.039c0,.15,0,.305,0,.456a16.22,16.22,0,1,0,32.441,0C337.968,60.964,337.968,60.831,337.964,60.7Zm-11.433-1.569,4.446-5.843.754-.989v.9l-4.983,6.548Zm-5.063-4.713,1.822,5.13-.217.283-1.911-5.377v-.9Zm-.3,2.257-4.442.607-.417,1.623-.239.026.656-2.549,4.136-.567.306-.04Zm-9.731,9.567,2.749-.32,1.148-4.521,4.056-.311.226-1.68.124-.913v.9l-.35,2.593-4.056.311-1.148,4.521-2.975.346v-.9Zm7.4.026v-.9l.758-.088,2.421-.284,2.19-2.833.855,2.469,2.953-.35.3-.035v.9l-3.254.385-.855-2.469-2.19,2.833Z" fill="#606060" opacity="0.49"/>
    <path id="Path_18630" data-name="Path 18630" d="M321.745,43.657a16.221,16.221,0,0,0-16.221,16.221c0,.151,0,.306.005.457a16.224,16.224,0,0,0,32.433.057v-.017c0-.164.008-.333.008-.5A16.221,16.221,0,0,0,321.745,43.657ZM335.2,60.295a13.345,13.345,0,0,1-.7,3.892,13.047,13.047,0,0,1-1.521,3.1c-.182.284-.377.558-.585.829-.129.168-.266.332-.4.5-.275.319-.563.63-.869.922a13.409,13.409,0,0,1-6.22,3.432c-.341.084-.687.155-1.037.208a13.459,13.459,0,0,1-2.128.168,13.774,13.774,0,0,1-2.013-.15c-.434-.067-.864-.151-1.285-.257A13.2,13.2,0,0,1,316,72.06c-.385-.181-.762-.381-1.126-.6-.328-.195-.647-.408-.957-.634-.071-.049-.138-.1-.209-.151-.3-.226-.6-.461-.882-.714-.159-.133-.31-.279-.465-.43-.3-.292-.594-.6-.869-.922a13.347,13.347,0,0,1-2.509-4.424c-.1-.306-.2-.621-.28-.935-.062-.24-.115-.479-.164-.719a11.114,11.114,0,0,1-.172-1.108c-.023-.186-.04-.372-.054-.563s-.022-.377-.026-.567c0-.045,0-.089,0-.138,0-.093,0-.186,0-.279,0-.23,0-.465.018-.691s.026-.462.053-.688c0-.017,0-.035,0-.053.018-.186.045-.377.071-.563.009-.044.013-.089.022-.133.027-.186.062-.368.1-.55a1.376,1.376,0,0,1,.031-.137c.04-.186.08-.368.128-.55.036-.155.08-.306.129-.456.067-.235.137-.466.222-.692l.106-.284a.063.063,0,0,1,.013-.035c.04-.106.08-.217.129-.324a.054.054,0,0,1,.009-.026.285.285,0,0,0,.013-.036l.013-.026a1.955,1.955,0,0,1,.093-.209,1.716,1.716,0,0,1,.089-.195.114.114,0,0,1,.022-.044,2.692,2.692,0,0,1,.12-.248c0-.005,0-.005,0-.009v-.005a.227.227,0,0,1,.04-.079,2.5,2.5,0,0,1,.138-.266,1.292,1.292,0,0,1,.084-.16,3.664,3.664,0,0,1,.182-.319.083.083,0,0,1,.022-.036c.049-.088.1-.177.155-.261.2-.337.43-.665.669-.984.12-.164.249-.324.382-.484a.39.39,0,0,1,.057-.07c.1-.129.213-.258.324-.377,0-.005,0-.005.009-.009.089-.1.182-.2.275-.288a.666.666,0,0,1,.111-.12l.115-.115a.375.375,0,0,1,.057-.062c.067-.071.133-.133.2-.195.133-.129.271-.258.413-.373.11-.1.221-.19.332-.283a.075.075,0,0,1,.031-.027c.107-.089.213-.169.319-.248.178-.142.359-.271.546-.4.057-.04.119-.08.177-.12a.2.2,0,0,1,.053-.035c.093-.067.191-.129.288-.186.009-.009.014-.014.022-.014.107-.066.218-.133.328-.195.173-.106.346-.2.524-.288a2.1,2.1,0,0,1,.221-.115.223.223,0,0,1,.067-.031c.071-.036.146-.071.221-.106.005,0,.009-.009.014-.009.15-.071.3-.142.456-.2l.031-.014c.124-.053.253-.106.377-.15a.058.058,0,0,1,.036-.014s0,0,.008,0v0c.005,0,.005,0,.009,0a.39.39,0,0,1,.089-.035c.022-.009.049-.018.075-.027a.533.533,0,0,1,.085-.031c.181-.067.368-.129.554-.186.159-.049.319-.1.483-.138.053-.017.111-.031.164-.044.1-.027.2-.053.306-.071a.172.172,0,0,1,.066-.013.012.012,0,0,1,.018-.005q.153-.039.306-.066a.091.091,0,0,1,.035-.009c.164-.035.328-.062.5-.089.089-.013.177-.026.261-.035.04-.009.08-.013.12-.018a.2.2,0,0,1,.049,0c.058-.009.115-.018.173-.022.009,0,.018,0,.022,0a.062.062,0,0,1,.04,0,.618.618,0,0,1,.128-.013.445.445,0,0,1,.08-.009c.124-.013.249-.022.377-.027a.661.661,0,0,1,.133-.009.423.423,0,0,1,.071,0,.447.447,0,0,1,.075,0c.187-.009.382-.014.572-.014a13.467,13.467,0,0,1,13.468,13.468C335.213,60.02,335.209,60.157,335.2,60.295Z" fill="url(#linear-gradient-5)"/>
    <path id="Path_18631" data-name="Path 18631" d="M321.747,46.41c-.19,0-.385.005-.571.014a.453.453,0,0,0-.076,0,.423.423,0,0,0-.071,0,.666.666,0,0,0-.133.009c-.128,0-.252.014-.377.027a.425.425,0,0,0-.079.009.62.62,0,0,0-.129.013.063.063,0,0,0-.04,0s-.013,0-.022,0c-.058,0-.115.013-.173.022a.2.2,0,0,0-.049,0c-.04.005-.079.009-.119.018-.085.009-.173.022-.262.035-.168.027-.332.054-.5.089a.091.091,0,0,0-.036.009q-.153.027-.306.066a.011.011,0,0,0-.017.005.174.174,0,0,0-.067.013c-.1.018-.2.044-.306.071-.053.013-.111.027-.164.044-.164.04-.323.089-.483.138-.186.057-.372.119-.554.186a.488.488,0,0,0-.084.031c-.027.009-.054.018-.076.027a.4.4,0,0,0-.088.035c-.005,0-.005,0-.009,0v0c-.005,0-.005,0-.009,0a.063.063,0,0,0-.036.014c-.128.049-.252.1-.376.15a.154.154,0,0,0-.031.014c-.156.062-.306.133-.457.2-.005,0-.009,0-.013.009-.076.035-.151.07-.222.106a.235.235,0,0,0-.067.031,2.106,2.106,0,0,0-.221.115c-.178.089-.35.182-.523.288-.111.062-.222.129-.328.195-.009,0-.014.005-.023.014-.1.057-.195.119-.288.186a.22.22,0,0,0-.053.035c-.058.04-.12.08-.177.12-.186.124-.368.253-.545.4-.107.079-.213.164-.32.248a.075.075,0,0,0-.031.027c-.111.093-.221.186-.332.283-.142.115-.279.244-.412.373-.071.066-.138.128-.2.195a.342.342,0,0,0-.058.062l-.115.115a.668.668,0,0,0-.111.12c-.093.093-.186.19-.275.288,0,0-.009,0-.009.009-.111.124-.217.248-.323.377a.358.358,0,0,0-.058.07c-.133.16-.262.32-.381.484a11.848,11.848,0,0,0-.67.984c-.053.084-.106.173-.155.261a.083.083,0,0,0-.022.036,3.664,3.664,0,0,0-.182.319,1.292,1.292,0,0,0-.084.16c-.049.088-.1.177-.137.266a.327.327,0,0,0-.04.079v.005c-.009,0-.009,0-.005.009a2.455,2.455,0,0,0-.119.248.1.1,0,0,0-.023.044,1.551,1.551,0,0,0-.088.195,1.622,1.622,0,0,0-.093.209.392.392,0,0,1-.023.062l-.013.026c-.049.107-.089.213-.128.324a.058.058,0,0,0-.014.035l-.106.284c-.084.226-.155.457-.222.692-.048.15-.088.3-.128.456-.049.182-.089.364-.129.55a1.376,1.376,0,0,0-.031.137c-.035.182-.071.364-.1.55-.009.044-.014.089-.023.133-.026.186-.053.377-.071.563,0,.018,0,.036,0,.053-.027.226-.04.457-.053.688s-.018.461-.018.691c0,.093,0,.186.005.279v.138c0,.19.017.381.031.567s.031.377.053.563a11.124,11.124,0,0,0,.173,1.108c.048.24.1.479.164.719.08.314.177.629.279.935a13.382,13.382,0,0,0,2.509,4.424c.275.324.568.63.869.922.155.151.306.3.465.43.284.249.581.488.883.714.071.053.137.1.208.151.31.226.63.439.958.634a12.729,12.729,0,0,0,1.126.6,13.168,13.168,0,0,0,2.438.874,12.534,12.534,0,0,0,1.285.257,13.784,13.784,0,0,0,2.013.15,13.45,13.45,0,0,0,2.128-.168c.35-.053.7-.124,1.037-.208a13.409,13.409,0,0,0,6.22-3.432c.306-.292.594-.6.869-.922.137-.164.275-.328.4-.5.209-.271.4-.545.585-.829a12.516,12.516,0,0,0,1.051-1.9,12.262,12.262,0,0,0,.47-1.2,13.312,13.312,0,0,0,.7-3.892c.005-.138.009-.275.009-.417A13.467,13.467,0,0,0,321.747,46.41Zm-6.414,15.583-1.148,4.521-2.975.346v-.9l.226-.026,2.669-10.963,6.3-.741.452,1.277.306-.04v.9l-4.442.607-.417,1.623-.239.926,3.546-.421.124-.913v.9l-.35,2.593Zm16.4-9.1-4.983,6.548-.217.284,1.485,4.251.3-.035v.9l-3.254.385-.855-2.469-2.19,2.833-3.179.372v-.9l.758-.088,3.693-4.832-.217-.617-1.911-5.377v-.9l.306.865,2.908-.346,1.237,3.329,2.922-3.826,2.442-.288.754-.988Z" fill="url(#linear-gradient-6)"/>
    <path id="Path_18632" data-name="Path 18632" d="M323.29,59.24l-.217.284-1.911-5.377v-.9l.306.864Z" fill="url(#linear-gradient-7)"/>
    <path id="Path_18633" data-name="Path 18633" d="M322.018,64.688v.9l-3.179.372v-.9l.758-.089Z" fill="url(#linear-gradient-8)"/>
    <path id="Path_18634" data-name="Path 18634" d="M324.208,61.855v.9l-2.19,2.833v-.9Z" fill="url(#linear-gradient-9)"/>
    <path id="Path_18635" data-name="Path 18635" d="M325.063,64.324v.9l-.856-2.469v-.9Z" fill="url(#linear-gradient-10)"/>
    <path id="Path_18636" data-name="Path 18636" d="M328.317,63.939v.9l-3.254.386v-.9l2.952-.35Z" fill="url(#linear-gradient-11)"/>
    <path id="Path_18637" data-name="Path 18637" d="M326.531,59.723l1.485,4.251-2.952.35-.856-2.469-2.19,2.833-2.42.284,3.693-4.832-.217-.616.217-.284-1.822-5.129,2.908-.346,1.237,3.329,2.921-3.826,2.443-.288-4.446,5.843.217.616Z" fill="url(#linear-gradient-12)"/>
    <path id="Path_18638" data-name="Path 18638" d="M314.185,65.615v.9l-2.975.346v-.9l.226-.027Z" fill="url(#linear-gradient-13)"/>
    <path id="Path_18639" data-name="Path 18639" d="M315.333,61.093v.9l-1.148,4.522v-.9Z" fill="url(#linear-gradient-14)"/>
    <path id="Path_18640" data-name="Path 18640" d="M319.389,60.782v.9l-4.056.31v-.9Z" fill="url(#linear-gradient-15)"/>
    <path id="Path_18641" data-name="Path 18641" d="M319.739,58.189v.9l-.35,2.593v-.9l.226-1.68Z" fill="url(#linear-gradient-16)"/>
    <path id="Path_18642" data-name="Path 18642" d="M316.725,56.074v.9l-.417,1.622-.239.027Z" fill="url(#linear-gradient-17)"/>
    <path id="Path_18643" data-name="Path 18643" d="M321.167,55.467v.9l-4.442.607v-.9l4.136-.567Z" fill="url(#linear-gradient-18)"/>
    <path id="Path_18644" data-name="Path 18644" d="M316.069,59.523l3.546-.421-.226,1.68-4.056.31-1.148,4.522-2.749.319L314.1,54.971l6.3-.74.452,1.277-4.136.567-.656,2.549.239-.027Z" fill="url(#linear-gradient-19)"/>
    <path id="Path_18645" data-name="Path 18645" d="M335.216,59.878c0,.141,0,.278-.008.415a13.465,13.465,0,0,0-26.917,0c0-.137-.007-.274-.007-.415a13.466,13.466,0,1,1,26.932,0Z" fill="url(#linear-gradient-20)"/>
    <path id="Path_18646" data-name="Path 18646" d="M330.977,52.98l-4.446,5.843.217.616,1.569,4.5-.3.035-2.952.35-.856-2.469-2.19,2.833-2.42.284-.758.089,4.234-5.537.217-.284-1.822-5.129-.306-.864,3.214-.381,1.237,3.329,2.921-3.826,3.2-.377Z" fill="#fff"/>
    <path id="Path_18647" data-name="Path 18647" d="M316.725,56.074l-.656,2.549.239-.027,3.431-.408-.124.913-.226,1.68-4.056.31-1.148,4.522-2.749.319-.226.027,2.895-11.89,6.3-.74.758,2.137-.306.04Z" fill="#fff"/>
    <g id="Group_4458" data-name="Group 4458">
      <path id="Path_18648" data-name="Path 18648" d="M302.158,73.429a42.666,42.666,0,0,1-4.972,9.507c-1.93,2.62-4.827,5.24-8.333,4.782-.071-.009-.142-.019-.213-.031a4.462,4.462,0,0,1-2.307-1.2c-1.7-1.616-2.2-4.1-2.406-6.375-.018-.193-.034-.385-.048-.574a36.231,36.231,0,0,1,.3-7.5c.384-2.868,1.016-5.714,1.671-8.512.842-3.562,1.811-7.09,2.877-10.592,1.123-3.694,2.344-7.36,3.625-11q1.1-3.118,2.249-6.214c.6-1.625,1.037-3.579,2.186-4.924a4.8,4.8,0,0,1,.6-.589c5.41-2.658,7.412,2.233,5.647,6.264a2.012,2.012,0,0,0-.855-2.682c-1.211-.542-2.25.441-2.724,1.479-1.029,2.254-1.788,4.678-2.673,6.984-1.632,4.25-3.126,8.551-4.538,12.88-.678,2.075-1.372,4.158-1.991,6.26a50.56,50.56,0,0,0-1.927,9.118c-.087.86-.139,1.721-.168,2.584-.019.5-.029,1.006-.034,1.508-.019,2.106-.223,5.13,1.866,6.412s3.956-.784,5.075-2.352a28.093,28.093,0,0,0,3.469-6.919,1.993,1.993,0,0,1,1.13-1.2C301.076,69.988,302.782,71.221,302.158,73.429Z" fill="url(#linear-gradient-21)"/>
      <path id="Path_18649" data-name="Path 18649" d="M245.3,84.8a2.1,2.1,0,0,1,.111-.4c.2-.5.491-.413,1.05-.515q.629-.112,1.25-.257a21.611,21.611,0,0,0,8.2-3.749,16.383,16.383,0,0,0,4.669-5.442,10.246,10.246,0,0,0,1.267-5.449,4.836,4.836,0,0,0-2.073-3.777c-2.3-1.456-5.758-.3-7.964.812a24.059,24.059,0,0,0-8.284,7.412,24.6,24.6,0,0,0-4.9,10.941,14.414,14.414,0,0,0,1.967,9.688,8.984,8.984,0,0,0,4.919,3.737,10.59,10.59,0,0,0,6.477-.308,17.917,17.917,0,0,0,6.748-4.476,32.542,32.542,0,0,0,5.744-8.568C256.633,98.48,241.2,99.744,245.3,84.8Zm11.145-13.3a1.316,1.316,0,0,1,.971.312c2.1,1.9-4.685,8.416-11.352,9.232C246.808,77.806,252.213,71.766,256.445,71.506Z" fill="url(#linear-gradient-22)"/>
      <path id="Path_18650" data-name="Path 18650" d="M263.692,84.24c-.023.045-.05.09-.076.135s-.05.088-.072.131v0c-7.084,12.677-21.032,13.819-17.326.315a12.015,12.015,0,0,0-.109,1.8,10.659,10.659,0,0,0,.273,3.311,3.083,3.083,0,0,0,2.8,2.578c1.756.056,3.463-1.079,4.782-2.113a27.944,27.944,0,0,0,5.46-5.975,59.9,59.9,0,0,0,4.793-8.75A37.386,37.386,0,0,0,263.692,84.24Z" fill="url(#linear-gradient-23)"/>
      <path id="Path_18651" data-name="Path 18651" d="M289.046,40.012c-.25.513-.51,1.021-.765,1.532q-.884,1.771-1.767,3.542L284,50.132,280.969,56.2q-1.626,3.261-3.254,6.521t-3.24,6.494q-1.492,2.99-2.984,5.979l-.126.253A50.838,50.838,0,0,1,274.232,61.4q1.038-2.023,2.078-4.047l3.3-6.428,2.909-5.664q1.059-2.061,2.118-4.123c.3-.58.645-1.155.9-1.754l.024-.058c2.379-4.935-1.024-9.485-5.381-6.429a4.89,4.89,0,0,1,.88-.747,6.023,6.023,0,0,1,5.1-.451,5.45,5.45,0,0,1,3.775,3.986A7.043,7.043,0,0,1,289.046,40.012Z" fill="url(#linear-gradient-24)"/>
      <path id="Path_18652" data-name="Path 18652" d="M284.174,72.037a36.231,36.231,0,0,0-.3,7.5c.014.189.03.381.048.574-.992,1.54-2.028,3.053-3.132,4.513a26.889,26.889,0,0,1-4.588,4.987,7.742,7.742,0,0,1-5.215,1.776,4.559,4.559,0,0,1-2.132-.693,5.205,5.205,0,0,1-1.65-1.8,9.973,9.973,0,0,1-1.072-3.015c-.876-4.739-.089-9.947.781-14.6.164-.85.344-1.7.531-2.543.654-2.93,1.429-5.831,2.276-8.71,1.024-3.485,2.157-6.937,3.361-10.364,1.434-4.088,2.969-8.14,4.572-12.167a11.022,11.022,0,0,1,2.048-3.759h0c4.29-2.886,7.508,1.6,5.1,6.346A1.8,1.8,0,0,0,283.14,37.5c-1,.05-1.431.789-1.765,1.619q-.652,1.623-1.289,3.254c-1.658,4.234-3.258,8.493-4.726,12.8-.692,2.032-1.359,4.072-1.975,6.13a49.4,49.4,0,0,0-3.054,13.583,16.682,16.682,0,0,0,.721,7.932c.444,1.059,1.139,2.361,2.491,2.131a5.243,5.243,0,0,0,2.663-1.784c.452-.462.893-.932,1.312-1.424a69.188,69.188,0,0,0,5.979-8.594C283.724,72.776,283.951,72.407,284.174,72.037Z" fill="url(#linear-gradient-25)"/>
      <path id="Path_18653" data-name="Path 18653" d="M307.788,36.131q-1.609,3.267-3.211,6.542c-2.073,4.217-4.148,8.435-6.258,12.632-1.96,3.9-3.947,7.784-6,11.63-1.107,2.071-2.233,4.133-3.4,6.174.03-.88.083-1.757.172-2.634a51.476,51.476,0,0,1,1.965-9.3q1.866-3.432,3.674-6.892,3.081-5.885,6.053-11.825c1.069-2.13,2.229-4.244,3.2-6.424.039-.089.076-.18.108-.272,1.8-4.111-.243-9.1-5.759-6.388a6.256,6.256,0,0,1,5.392-1.112,5.962,5.962,0,0,1,4.565,4.028A5.482,5.482,0,0,1,307.788,36.131Z" fill="url(#linear-gradient-26)"/>
      <path id="Path_18654" data-name="Path 18654" d="M266.941,71.153c-.007.041-.015.082-.022.124" fill="none"/>
      <path id="Path_18655" data-name="Path 18655" d="M264.551,84.306a1.568,1.568,0,0,1-.08.145" fill="none" stroke="#fff" stroke-miterlimit="10" stroke-width="0.25"/>
    </g>
  </g>
</svg>
