<svg xmlns="http://www.w3.org/2000/svg" width="129.829" height="121" viewBox="0 0 129.829 121">
  <g id="Group_4554" data-name="Group 4554" transform="translate(-555.778 -1059.023)">
    <g id="Group_4549" data-name="Group 4549">
      <g id="Group_4547" data-name="Group 4547">
        <g id="Group_4544" data-name="Group 4544">
          <path id="Path_18798" data-name="Path 18798" d="M623,1101.1h-5.2a5.529,5.529,0,0,1-5.522-5.522,1.994,1.994,0,1,1,3.989,0,1.534,1.534,0,0,0,1.533,1.533H623a1.535,1.535,0,0,0,1.534-1.533v-2.081a1.535,1.535,0,0,0-1.534-1.531h-5.2a5.529,5.529,0,0,1-5.522-5.522v-2.081a5.528,5.528,0,0,1,5.522-5.522H623a5.529,5.529,0,0,1,5.523,5.522,1.994,1.994,0,1,1-3.989,0,1.535,1.535,0,0,0-1.534-1.533h-5.2a1.534,1.534,0,0,0-1.533,1.533v2.081a1.534,1.534,0,0,0,1.533,1.532H623a5.529,5.529,0,0,1,5.523,5.521v2.081A5.53,5.53,0,0,1,623,1101.1Z" fill="#7ac143" stroke="#7ac143" stroke-miterlimit="10" stroke-width="1"/>
        </g>
        <g id="Group_4545" data-name="Group 4545">
          <path id="Path_18799" data-name="Path 18799" d="M620.4,1082.828a1.994,1.994,0,0,1-1.994-1.995v-3.594a1.995,1.995,0,0,1,3.989,0v3.594A2,2,0,0,1,620.4,1082.828Z" fill="#7ac143" stroke="#7ac143" stroke-miterlimit="10" stroke-width="1"/>
        </g>
        <g id="Group_4546" data-name="Group 4546">
          <path id="Path_18800" data-name="Path 18800" d="M620.4,1104.692a1.994,1.994,0,0,1-1.994-1.995V1099.1a1.995,1.995,0,0,1,3.989,0v3.594A2,2,0,0,1,620.4,1104.692Z" fill="#7ac143" stroke="#7ac143" stroke-miterlimit="10" stroke-width="1"/>
        </g>
      </g>
      <g id="Group_4548" data-name="Group 4548">
        <path id="Path_18801" data-name="Path 18801" d="M620.4,1120.416a30.447,30.447,0,1,1,30.447-30.447A30.482,30.482,0,0,1,620.4,1120.416Zm0-56.9a26.458,26.458,0,1,0,26.457,26.457A26.488,26.488,0,0,0,620.4,1063.512Z" fill="#7ac143" stroke="#7ac143" stroke-miterlimit="10" stroke-width="1"/>
      </g>
    </g>
    <g id="Group_4553" data-name="Group 4553">
      <g id="Group_4550" data-name="Group 4550">
        <path id="Path_18802" data-name="Path 18802" d="M626.609,1179.523a9.577,9.577,0,0,1-3.016-.489l-45.264-15.015a6.24,6.24,0,0,0-4.736.345l-14.434,7.079a1.994,1.994,0,1,1-1.757-3.58l14.418-7.072a10.246,10.246,0,0,1,7.764-.558l45.266,15.014a5.527,5.527,0,0,0,3.263.078l2.167-.6a10.75,10.75,0,0,0,3.585-1.75l45.669-33.918a3.771,3.771,0,0,0,1.412-3.944l-.441-1.74a2.572,2.572,0,0,0-2.5-1.957,1.129,1.129,0,0,0-.606.171l-43.221,26.737a1.987,1.987,0,0,1-2.009.051l-15.6-8.573a1.994,1.994,0,1,1,1.921-3.494l14.58,8.011,42.221-26.119a5.1,5.1,0,0,1,2.714-.774,6.554,6.554,0,0,1,6.374,4.977l.441,1.741a7.76,7.76,0,0,1-2.9,8.115l-45.668,33.916a14.675,14.675,0,0,1-4.9,2.4l-2.154.6A9.542,9.542,0,0,1,626.609,1179.523Z" fill="#7ac143" stroke="#7ac143" stroke-miterlimit="10" stroke-width="1"/>
      </g>
      <g id="Group_4551" data-name="Group 4551">
        <path id="Path_18803" data-name="Path 18803" d="M617.561,1150.048l-10.589-.371a1.994,1.994,0,0,1,.141-3.986l10.484.37,25.9-.444a2.772,2.772,0,0,0,2.713-2.534l.234-2.708a2.228,2.228,0,0,0-1.943-2.406l-49.931-6.323a6.612,6.612,0,0,0-2.912.283l-29.067,9.905a1.994,1.994,0,1,1-1.287-3.775l29.078-9.91a10.6,10.6,0,0,1,4.693-.461L645,1134.011a6.2,6.2,0,0,1,5.416,6.707l-.234,2.712a6.755,6.755,0,0,1-6.617,6.176Z" fill="#7ac143" stroke="#7ac143" stroke-miterlimit="10" stroke-width="1"/>
      </g>
      <g id="Group_4552" data-name="Group 4552">
        <path id="Path_18804" data-name="Path 18804" d="M642.682,1137.724a1.995,1.995,0,0,1-.736-3.849l19.394-7.7a6.939,6.939,0,0,1,4.618-.035,7.949,7.949,0,0,1,5.314,7.49v.63a1.994,1.994,0,0,1-3.989,0v-.63a3.956,3.956,0,0,0-2.642-3.725,2.911,2.911,0,0,0-1.9,0l-19.324,7.671A1.987,1.987,0,0,1,642.682,1137.724Z" fill="#7ac143" stroke="#7ac143" stroke-miterlimit="10" stroke-width="1"/>
      </g>
    </g>
  </g>
</svg>
