<svg xmlns="http://www.w3.org/2000/svg" width="52" height="52" viewBox="0 0 52 52">
  <g id="Group_4526" data-name="Group 4526" transform="translate(-784.29 -3516.875)">
    <g id="Group_4524" data-name="Group 4524">
      <path id="Path_18760" data-name="Path 18760" d="M804.478,3553.591a.851.851,0,0,1-.6-.251l-8.1-8.1a.855.855,0,0,1,1.209-1.209l7.494,7.493,19.117-19.117a.855.855,0,0,1,1.209,1.21l-19.721,19.721A.853.853,0,0,1,804.478,3553.591Z" fill="lime" stroke="lime" stroke-miterlimit="10" stroke-width="2"/>
    </g>
    <g id="Group_4525" data-name="Group 4525">
      <path id="Path_18761" data-name="Path 18761" d="M810.29,3567.875a25,25,0,1,1,25-25A25.028,25.028,0,0,1,810.29,3567.875Zm0-48.29a23.29,23.29,0,1,0,23.289,23.29A23.316,23.316,0,0,0,810.29,3519.585Z" fill="lime" stroke="lime" stroke-miterlimit="10" stroke-width="2"/>
    </g>
  </g>
</svg>
