<svg xmlns="http://www.w3.org/2000/svg" width="78.415" height="50" viewBox="0 0 78.415 50">
  <g id="Group_78" data-name="Group 78" transform="translate(-160.062 -6675.998)">
    <g id="Group_65" data-name="Group 65">
      <path id="Path_212" data-name="Path 212" d="M167.555,6705.97a1.162,1.162,0,0,1-.577-.154l-6.338-3.659a1.156,1.156,0,0,1-.423-1.58l13.758-23.83a1.154,1.154,0,0,1,1.579-.423l6.338,3.659a1.157,1.157,0,0,1,.424,1.58l-13.758,23.829A1.157,1.157,0,0,1,167.555,6705.97Zm-4.757-5.238,4.335,2.5,12.6-21.826-4.335-2.5Z" fill="#7ac143"/>
    </g>
    <g id="Group_66" data-name="Group 66">
      <path id="Path_213" data-name="Path 213" d="M230.983,6705.8a1.156,1.156,0,0,1-1-.578l-13.758-23.829a1.157,1.157,0,0,1,.423-1.58l6.338-3.659a1.159,1.159,0,0,1,1.58.423l13.758,23.83a1.156,1.156,0,0,1-.424,1.579l-6.337,3.66A1.16,1.16,0,0,1,230.983,6705.8ZM218.8,6681.237l12.6,21.826,4.334-2.5-12.6-21.827Z" fill="#7ac143"/>
    </g>
    <g id="Group_67" data-name="Group 67">
      <path id="Path_214" data-name="Path 214" d="M177.261,6713.659a4.28,4.28,0,0,1-2.706-.961h0a4.318,4.318,0,0,1-.637-6.064l1.049-1.3a4.312,4.312,0,0,1,6.7,5.427l-1.051,1.3a4.276,4.276,0,0,1-2.9,1.574A4.125,4.125,0,0,1,177.261,6713.659Zm-1.25-2.758a2,2,0,0,0,2.81-.295l1.051-1.3a2,2,0,0,0-3.108-2.515l-1.049,1.3a2,2,0,0,0,.3,2.811Z" fill="#7ac143"/>
    </g>
    <g id="Group_68" data-name="Group 68">
      <path id="Path_215" data-name="Path 215" d="M182.013,6717.857a4.31,4.31,0,0,1-3.341-7.025l4.588-5.667a4.311,4.311,0,1,1,6.7,5.426l-4.59,5.667a4.282,4.282,0,0,1-2.9,1.575A4.393,4.393,0,0,1,182.013,6717.857Zm4.6-11.977a1.994,1.994,0,0,0-1.555.74l-4.59,5.667a2,2,0,0,0,.3,2.811h0a2,2,0,0,0,2.811-.3l4.589-5.667a2,2,0,0,0-1.551-3.256Z" fill="#7ac143"/>
    </g>
    <g id="Group_69" data-name="Group 69">
      <path id="Path_216" data-name="Path 216" d="M186.661,6722.135a4.3,4.3,0,0,1-2.71-.958h0a4.316,4.316,0,0,1-.637-6.063l3.741-4.62a4.312,4.312,0,1,1,6.7,5.427l-3.742,4.619A4.3,4.3,0,0,1,186.661,6722.135Zm-1.254-2.756a2,2,0,0,0,2.811-.295l3.742-4.62a2,2,0,1,0-3.108-2.516l-3.741,4.62a2,2,0,0,0,.3,2.811Z" fill="#7ac143"/>
    </g>
    <g id="Group_70" data-name="Group 70">
      <path id="Path_217" data-name="Path 217" d="M191.682,6726a4.312,4.312,0,0,1-3.342-7.025l2.589-3.2a4.311,4.311,0,0,1,6.7,5.426l-2.589,3.2a4.282,4.282,0,0,1-2.9,1.575A4.379,4.379,0,0,1,191.682,6726Zm2.6-9.507a1.939,1.939,0,0,0-.212.011,1.982,1.982,0,0,0-1.344.73l-2.589,3.2a2,2,0,0,0,.3,2.811h0a2,2,0,0,0,2.812-.3l2.589-3.2a2,2,0,0,0-.3-2.811A1.98,1.98,0,0,0,194.282,6716.491Z" fill="#7ac143"/>
    </g>
    <g id="Group_71" data-name="Group 71">
      <path id="Path_218" data-name="Path 218" d="M202.859,6725.191a16.5,16.5,0,0,1-7.857-2.314,1.156,1.156,0,0,1,1.178-1.99c.337.2,8.276,4.795,11.468-.559a1.156,1.156,0,0,1,1.986,1.185A7.424,7.424,0,0,1,202.859,6725.191Z" fill="#7ac143"/>
    </g>
    <g id="Group_72" data-name="Group 72">
      <path id="Path_219" data-name="Path 219" d="M210.264,6722.274c-3.225,0-8.521-3.127-10.922-4.661a1.156,1.156,0,1,1,1.245-1.949c4.412,2.815,9.116,4.807,10.068,4.255,1.818-1.049,1.818-1.539,1.818-2.994a1.156,1.156,0,0,1,2.313,0c0,1.981-.207,3.4-2.975,5A3.068,3.068,0,0,1,210.264,6722.274Z" fill="#7ac143"/>
    </g>
    <g id="Group_73" data-name="Group 73">
      <path id="Path_220" data-name="Path 220" d="M175.571,6707.587a1.152,1.152,0,0,1-.9-.435l-5.195-6.5a1.156,1.156,0,0,1,1.807-1.443l5.194,6.5a1.156,1.156,0,0,1-.9,1.878Z" fill="#7ac143"/>
    </g>
    <g id="Group_74" data-name="Group 74">
      <path id="Path_221" data-name="Path 221" d="M214.521,6717.8c-4.613,0-11.058-5.5-11.872-6.215a1.156,1.156,0,0,1,1.522-1.741c3.311,2.892,8.984,6.506,11.24,5.482,1.064-.483,1.287-2.2,1.287-3.547a1.156,1.156,0,0,1,2.312,0c0,2.955-.889,4.856-2.643,5.652A4.426,4.426,0,0,1,214.521,6717.8Z" fill="#7ac143"/>
    </g>
    <g id="Group_75" data-name="Group 75">
      <path id="Path_222" data-name="Path 222" d="M220.349,6713.421c-4.468,0-12-5.7-14.557-7.745a1.156,1.156,0,1,1,1.443-1.806c5.492,4.39,12.521,8.374,13.823,7.067.03-.03.062-.058.1-.085a3.123,3.123,0,0,0,1.1-2.349c-.1-1.269-1.346-2.624-3.589-3.918-6.618-3.822-17-10.68-19.233-12.166l-2.446.64a13.358,13.358,0,0,1-8.337,5.277,3.139,3.139,0,0,1-2.944-1.094,3.179,3.179,0,0,1-.571-3.113,27.148,27.148,0,0,1,6.707-10.087c.259-.232,5.2-4.393,17.838-1.447,1.115.231,2.111.5,2.991.739,2.6.7,4.03,1.089,5.995-.045a1.156,1.156,0,1,1,1.156,2c-2.8,1.613-4.985,1.023-7.755.273-.848-.229-1.809-.489-2.884-.711-11.338-2.642-15.721.84-15.762.875a24.76,24.76,0,0,0-6.1,9.161.88.88,0,0,0,.959,1.165,11.156,11.156,0,0,0,7.022-4.62,1.153,1.153,0,0,1,.687-.5l3.362-.88a1.161,1.161,0,0,1,.935.157c.121.081,12.19,8.131,19.538,12.374,2.987,1.724,4.581,3.663,4.74,5.763a5.405,5.405,0,0,1-1.9,4.267A3.2,3.2,0,0,1,220.349,6713.421Z" fill="#7ac143"/>
    </g>
    <g id="Group_76" data-name="Group 76">
      <path id="Path_223" data-name="Path 223" d="M222.481,6707.374a1.156,1.156,0,0,1-.58-2.157c.358-.237,4.113-3.145,6.389-4.918a1.156,1.156,0,1,1,1.422,1.824c-2.837,2.21-6.294,4.888-6.653,5.1A1.158,1.158,0,0,1,222.481,6707.374Z" fill="#7ac143"/>
    </g>
    <g id="Group_77" data-name="Group 77">
      <path id="Path_224" data-name="Path 224" d="M189.716,6688.442c-4.927,0-10.282-3.859-10.521-4.033a1.156,1.156,0,0,1,1.361-1.869c.055.039,5.542,3.99,9.8,3.558a1.157,1.157,0,1,1,.23,2.3C190.3,6688.428,190.009,6688.442,189.716,6688.442Z" fill="#7ac143"/>
    </g>
  </g>
</svg>
