<svg xmlns="http://www.w3.org/2000/svg" width="68.895" height="50" viewBox="0 0 68.895 50">
  <g id="Group_4455" data-name="Group 4455" transform="translate(-844.271 -4370.765)">
    <g id="Group_4452" data-name="Group 4452">
      <g id="Group_4447" data-name="Group 4447">
        <path id="Path_18617" data-name="Path 18617" d="M881.257,4406.933H847.98a3.712,3.712,0,0,1-3.709-3.707v-28.753a3.713,3.713,0,0,1,3.709-3.708h44.233a3.713,3.713,0,0,1,3.709,3.708v8.2a1.818,1.818,0,1,1-3.636,0v-8.2l-44.306-.071-.072,28.824,33.349.071a1.818,1.818,0,1,1,0,3.636Z" fill="#ff1d25"/>
      </g>
      <g id="Group_4448" data-name="Group 4448">
        <path id="Path_18618" data-name="Path 18618" d="M881.257,4400.175H846.089a1.818,1.818,0,1,1,0-3.636h35.168a1.818,1.818,0,1,1,0,3.636Z" fill="#ff1d25"/>
      </g>
      <g id="Group_4449" data-name="Group 4449">
        <path id="Path_18619" data-name="Path 18619" d="M871.424,4381.075h-2.655a1.819,1.819,0,0,1,0-3.637h2.655a1.819,1.819,0,0,1,0,3.637Z" fill="#ff1d25"/>
      </g>
      <g id="Group_4450" data-name="Group 4450">
        <path id="Path_18620" data-name="Path 18620" d="M894.883,4391.767h-2.654a1.818,1.818,0,0,1,0-3.636h2.654a1.818,1.818,0,1,1,0,3.636Z" fill="#ff1d25"/>
      </g>
      <g id="Group_4451" data-name="Group 4451">
        <path id="Path_18621" data-name="Path 18621" d="M880.35,4420.765H859.721a1.818,1.818,0,0,1-1.819-1.818v-5.754a1.816,1.816,0,0,1,1.474-1.785l5.6-1.081a1.68,1.68,0,0,1,.345-.034h0v-5.178a1.816,1.816,0,0,1,1.818-1.818h5.911a1.816,1.816,0,0,1,1.818,1.818l.077,5.178a1.875,1.875,0,0,1,.357.035l5.4,1.081a1.819,1.819,0,0,1,1.462,1.784v5.754A1.818,1.818,0,0,1,880.35,4420.765Zm-18.811-3.636h16.993v-2.447l-3.764-.753h-1.716a1.817,1.817,0,0,1-1.818-1.818v-5.178h-2.275v5.178a1.817,1.817,0,0,1-1.818,1.818h-1.646l-3.956.764Z" fill="#ff1d25"/>
      </g>
    </g>
    <g id="Group_4453" data-name="Group 4453">
      <path id="Path_18622" data-name="Path 18622" d="M910.07,4420.765h-8.652a3.1,3.1,0,0,1-3.1-3.094v-22.912a3.1,3.1,0,0,1,3.1-3.094h8.652a3.1,3.1,0,0,1,3.1,3.094v22.912A3.1,3.1,0,0,1,910.07,4420.765Zm-8.11-3.636h7.569V4395.3H901.96Zm8.11-21.828h0Z" fill="#ff1d25"/>
    </g>
    <g id="Group_4454" data-name="Group 4454">
      <path id="Path_18623" data-name="Path 18623" d="M903.966,4420.765H883.147a3.713,3.713,0,0,1-3.708-3.709v-32.492a3.713,3.713,0,0,1,3.708-3.709h20.819a3.712,3.712,0,0,1,3.709,3.709v8.92a1.818,1.818,0,1,1-3.636,0v-8.92l-20.892-.073-.071,32.565,20.89.073a1.818,1.818,0,0,1,0,3.636Z" fill="#ff1d25"/>
    </g>
  </g>
</svg>
