<svg xmlns="http://www.w3.org/2000/svg" width="48.775" height="52" viewBox="0 0 48.775 52">
  <g id="Group_4511" data-name="Group 4511" transform="translate(-849.905 -1455.775)">
    <g id="Group_4500" data-name="Group 4500">
      <path id="Path_18749" data-name="Path 18749" d="M883.614,1506.775h-32a.706.706,0,0,1-.706-.705v-39.114a.705.705,0,0,1,.706-.705h4.328a.706.706,0,1,1,0,1.411h-3.623v37.7h30.592v-10.258a.705.705,0,1,1,1.411,0v10.964A.705.705,0,0,1,883.614,1506.775Z" fill="#ef8b1e" stroke="#ef8b1e" stroke-miterlimit="10" stroke-width="2"/>
    </g>
    <g id="Group_4501" data-name="Group 4501">
      <path id="Path_18750" data-name="Path 18750" d="M883.614,1479.226a.7.7,0,0,1-.706-.7v-10.859H879.1a.706.706,0,0,1,0-1.411h4.517a.7.7,0,0,1,.7.705v11.565A.7.7,0,0,1,883.614,1479.226Z" fill="#ef8b1e" stroke="#ef8b1e" stroke-miterlimit="10" stroke-width="2"/>
    </g>
    <g id="Group_4502" data-name="Group 4502">
      <path id="Path_18751" data-name="Path 18751" d="M875.25,1472.751H859.975a2.656,2.656,0,0,1-2.654-2.653v-2.609a2.656,2.656,0,0,1,2.654-2.653h.481a6.837,6.837,0,0,1-.054-.851,7.21,7.21,0,0,1,14.42,0,6.823,6.823,0,0,1-.054.851h.482a2.656,2.656,0,0,1,2.653,2.653v2.609A2.656,2.656,0,0,1,875.25,1472.751Zm-15.275-6.5a1.244,1.244,0,0,0-1.243,1.242v2.609a1.245,1.245,0,0,0,1.243,1.243H875.25a1.244,1.244,0,0,0,1.242-1.243v-2.609a1.243,1.243,0,0,0-1.242-1.242h-1.329a.705.705,0,0,1-.684-.874,5.87,5.87,0,0,0,.174-1.388,5.8,5.8,0,1,0-11.423,1.388.705.705,0,0,1-.685.874Z" fill="#ef8b1e" stroke="#ef8b1e" stroke-miterlimit="10" stroke-width="2"/>
    </g>
    <g id="Group_4507" data-name="Group 4507">
      <g id="Group_4503" data-name="Group 4503">
        <path id="Path_18752" data-name="Path 18752" d="M870.821,1500.011a.705.705,0,0,1-.692-.84l.939-4.84a.706.706,0,0,1,.193-.365l17.051-17.05a.707.707,0,0,1,1,0l3.9,3.9a.705.705,0,0,1,0,1l-17.051,17.051a.7.7,0,0,1-.364.194l-4.841.939A.683.683,0,0,1,870.821,1500.011Zm1.59-5.2-.7,3.6,3.6-.7,16.4-16.4-2.9-2.9Zm3.251,3.556h0Z" fill="#ef8b1e" stroke="#ef8b1e" stroke-miterlimit="10" stroke-width="2"/>
      </g>
      <g id="Group_4504" data-name="Group 4504">
        <path id="Path_18753" data-name="Path 18753" d="M894.663,1480.071a.7.7,0,0,1-.5-.207l-3.9-3.9a.705.705,0,0,1,0-1l2.312-2.311a.7.7,0,0,1,1,0l3.9,3.9a.7.7,0,0,1,0,1l-2.312,2.312A.7.7,0,0,1,894.663,1480.071Zm-2.9-4.607,2.9,2.9,1.314-1.315-2.9-2.9Z" fill="#ef8b1e" stroke="#ef8b1e" stroke-miterlimit="10" stroke-width="2"/>
      </g>
      <g id="Group_4505" data-name="Group 4505">
        <path id="Path_18754" data-name="Path 18754" d="M883.721,1487.112a.706.706,0,0,1-.5-1.2l7.041-7.042a.705.705,0,1,1,1,1l-7.041,7.041A.706.706,0,0,1,883.721,1487.112Z" fill="#ef8b1e" stroke="#ef8b1e" stroke-miterlimit="10" stroke-width="2"/>
      </g>
      <g id="Group_4506" data-name="Group 4506">
        <path id="Path_18755" data-name="Path 18755" d="M875.662,1499.072a.7.7,0,0,1-.5-.207l-3.9-3.9a.705.705,0,0,1,1-1l3.9,3.9a.706.706,0,0,1-.5,1.2Z" fill="#ef8b1e" stroke="#ef8b1e" stroke-miterlimit="10" stroke-width="2"/>
      </g>
    </g>
    <g id="Group_4508" data-name="Group 4508">
      <path id="Path_18756" data-name="Path 18756" d="M857.357,1485.024a.7.7,0,0,1-.5-.206l-1.434-1.434a.705.705,0,0,1,1-1l.935.935,4.111-4.11a.7.7,0,0,1,1,1l-4.609,4.609A.7.7,0,0,1,857.357,1485.024Z" fill="#ef8b1e" stroke="#ef8b1e" stroke-miterlimit="10" stroke-width="2"/>
    </g>
    <g id="Group_4509" data-name="Group 4509">
      <path id="Path_18757" data-name="Path 18757" d="M857.357,1492.62a.7.7,0,0,1-.5-.207l-1.434-1.433a.705.705,0,0,1,1-1l.935.935,4.111-4.111a.7.7,0,0,1,1,1l-4.609,4.609A.7.7,0,0,1,857.357,1492.62Z" fill="#ef8b1e" stroke="#ef8b1e" stroke-miterlimit="10" stroke-width="2"/>
    </g>
    <g id="Group_4510" data-name="Group 4510">
      <path id="Path_18758" data-name="Path 18758" d="M857.357,1500.216a.706.706,0,0,1-.5-.206l-1.434-1.435a.705.705,0,0,1,1-1l.935.936,4.111-4.111a.705.705,0,0,1,1,1l-4.609,4.61A.708.708,0,0,1,857.357,1500.216Z" fill="#ef8b1e" stroke="#ef8b1e" stroke-miterlimit="10" stroke-width="2"/>
    </g>
  </g>
</svg>
