<svg xmlns="http://www.w3.org/2000/svg" width="102.394" height="121" viewBox="0 0 102.394 121">
  <g id="Group_4556" data-name="Group 4556" transform="translate(-1171.871 -1059.023)">
    <path id="Path_18805" data-name="Path 18805" d="M1244.055,1129.935h-19.773v-9.227a3.161,3.161,0,1,0-6.323,0V1133.1a3.16,3.16,0,0,0,3.162,3.16h16.4l-27.706,35.008-27.7-35.008h16.4a3.156,3.156,0,0,0,3.162-3.16v-62.226h6.133a3.161,3.161,0,1,0,0-6.323h-9.295a3.161,3.161,0,0,0-3.161,3.161v62.226h-19.774a3.16,3.16,0,0,0-2.478,5.123l34.236,43.266a3.163,3.163,0,0,0,4.959,0l34.24-43.266a3.159,3.159,0,0,0-2.481-5.123Z" fill="#ff1d25" stroke="#ff1d25" stroke-miterlimit="10" stroke-width="1"/>
    <path id="Path_18806" data-name="Path 18806" d="M1221.7,1111.587a3.162,3.162,0,0,0,4.471,0l42.092-42.089a3.162,3.162,0,1,0-4.471-4.471l-42.092,42.089A3.166,3.166,0,0,0,1221.7,1111.587Z" fill="#ff1d25" stroke="#ff1d25" stroke-miterlimit="10" stroke-width="1"/>
    <path id="Path_18807" data-name="Path 18807" d="M1228.97,1085.061h.013a12.787,12.787,0,1,0-.013,0Zm-4.557-17.328a6.441,6.441,0,0,1,4.556-1.887h0a6.446,6.446,0,1,1-4.558,1.887Z" fill="#ff1d25" stroke="#ff1d25" stroke-miterlimit="10" stroke-width="1"/>
    <path id="Path_18808" data-name="Path 18808" d="M1270.025,1095.289a12.768,12.768,0,1,0-9.029,21.8h.013a12.769,12.769,0,0,0,9.016-21.8Zm-4.472,13.589a6.446,6.446,0,1,1,1.889-4.559A6.437,6.437,0,0,1,1265.553,1108.878Z" fill="#ff1d25" stroke="#ff1d25" stroke-miterlimit="10" stroke-width="1"/>
  </g>
</svg>
